<svg width="24" height="24" viewBox="0 0 24 24" fill="none" xmlns="http://www.w3.org/2000/svg">
    <path d="M12 24C18.6274 24 24 18.6274 24 12C24 5.37258 18.6274 0 12 0C5.37258 0 0 5.37258 0 12C0 18.6274 5.37258 24 12 24Z" fill="#2C842E"/>
    <path fill-rule="evenodd" clip-rule="evenodd" d="M12 22.44C17.7659 22.44 22.44 17.7659 22.44 12C22.44 6.23415 17.7659 1.56 12 1.56C6.23415 1.56 1.56 6.23415 1.56 12C1.56 17.7659 6.23415 22.44 12 22.44ZM24 12C24 18.6274 18.6274 24 12 24C5.37258 24 0 18.6274 0 12C0 5.37258 5.37258 0 12 0C18.6274 0 24 5.37258 24 12Z" fill="#2C842E"/>
</svg>
