<svg width="16" height="16" viewBox="0 0 16 16" fill="none" xmlns="http://www.w3.org/2000/svg">
<path d="M7.20086 12.5265C7.20085 12.9677 7.55851 13.3254 7.99971 13.3254C8.44091 13.3254 8.79859 12.9677 8.79859 12.5265L8.79867 8.79874L12.5271 8.79867C12.9683 8.79866 13.3259 8.44099 13.326 7.99979C13.326 7.55859 12.9683 7.20093 12.5271 7.20094L8.79869 7.20101L8.79877 3.47268C8.79877 3.03148 8.44112 2.67382 7.99991 2.67383C7.55871 2.67384 7.20104 3.03151 7.20103 3.47271L7.20096 7.20104L3.47329 7.20111C3.03209 7.20112 2.67442 7.55879 2.67441 7.99999C2.6744 8.44119 3.03206 8.79885 3.47326 8.79884L7.20093 8.79877L7.20086 12.5265Z" fill="#2C842E"/>
</svg>
