<svg width="30" height="30" viewBox="0 0 30 30" fill="none" xmlns="http://www.w3.org/2000/svg">
<g id="Ai Edit Spark" clip-path="url(#clip0_43_2942)">
<g id="ai-edit-spark--change-edit-modify-pencil-write-writing-artificial-intelligence-ai">
<path id="Union" fill-rule="evenodd" clip-rule="evenodd" d="M6.12011 1.40144C6.52725 -0.458559 9.17797 -0.471416 9.60225 1.38644L9.62368 1.48073L9.66654 1.66501C9.92534 2.76614 10.502 3.76693 11.325 4.54299C12.1479 5.31904 13.1807 5.83614 14.2951 6.03001C16.2344 6.36644 16.2344 9.15216 14.2951 9.48858C13.1744 9.68352 12.1363 10.2053 11.3113 10.9884C10.4862 11.7715 9.91105 12.781 9.65797 13.89L9.60225 14.1322C9.17797 15.99 6.52939 15.9772 6.12011 14.1172L6.07725 13.9093C5.83355 12.7966 5.26397 11.7816 4.44115 10.9939C3.61832 10.2062 2.57954 9.68142 1.45725 9.48644C-0.479891 9.14787 -0.479891 6.37073 1.45725 6.03216C2.57526 5.83767 3.61043 5.31583 4.4317 4.5327C5.25297 3.74957 5.82342 2.74037 6.07082 1.63287L6.10511 1.48073L6.12011 1.40144ZM22.7915 7.74858C23.3852 7.49928 24.04 7.43402 24.6712 7.56125C25.3024 7.68848 25.8808 8.00234 26.3315 8.46216L26.3358 8.4643L29.0487 11.2007C29.3487 11.4994 29.5867 11.8544 29.7491 12.2453C29.9115 12.6362 29.9951 13.0553 29.9951 13.4786C29.9951 13.9019 29.9115 14.321 29.7491 14.7119C29.5867 15.1028 29.3487 15.4578 29.0487 15.7564L29.0444 15.7607L15.7651 29.1257C15.5863 29.3059 15.3494 29.4168 15.0965 29.4386L8.66797 29.9957C8.51235 30.0091 8.3557 29.9883 8.20897 29.9348C8.06224 29.8813 7.929 29.7963 7.81855 29.6859C7.70811 29.5754 7.62316 29.4422 7.56963 29.2954C7.5161 29.1487 7.4953 28.9921 7.50868 28.8364L8.06582 22.4079C8.08763 22.155 8.1985 21.9181 8.37868 21.7393L21.7437 8.46001C22.0417 8.15595 22.3971 7.91413 22.7894 7.74858H22.7915Z" fill="currentColor"/>
</g>
</g>
<defs>
<clipPath id="clip0_43_2942">
<rect width="30" height="30" fill="white"/>
</clipPath>
</defs>
</svg>
