<svg width="8" height="7" viewBox="0 0 8 7" fill="none" xmlns="http://www.w3.org/2000/svg">
<path fill-rule="evenodd" clip-rule="evenodd" d="M7.34245 3.33333C7.34245 5.17428 5.85006 6.66667 4.00911 6.66667C2.16817 6.66667 0.675781 5.17428 0.675781 3.33333C0.675781 1.49238 2.16817 0 4.00911 0C5.85006 0 7.34245 1.49238 7.34245 3.33333ZM3.41072 1.78221C3.38539 1.43172 3.66291 1.13342 4.01431 1.13342C4.36572 1.13342 4.64324 1.43172 4.6179 1.78221L4.47923 3.70091C4.46161 3.94467 4.25871 4.13343 4.01431 4.13343C3.76992 4.13343 3.56702 3.94467 3.5494 3.70091L3.41072 1.78221ZM4.55641 5.09775C4.55641 5.39362 4.31372 5.63346 4.01435 5.63346C3.71497 5.63346 3.47228 5.39362 3.47228 5.09775C3.47228 4.80188 3.71497 4.56203 4.01435 4.56203C4.31372 4.56203 4.55641 4.80188 4.55641 5.09775Z" fill="#B80017"/>
</svg>
