<svg width="24" height="24" viewBox="0 0 24 24" fill="none" xmlns="http://www.w3.org/2000/svg">
    <path fill-rule="evenodd" clip-rule="evenodd" d="M12 22C17.5228 22 22 17.5228 22 12C22 6.47715 17.5228 2 12 2C6.47715 2 2 6.47715 2 12C2 17.5228 6.47715 22 12 22Z" fill="#D0021B"/>
    <path d="M10.2554 7.26321C10.1849 6.27665 10.9663 5.4375 11.9554 5.4375C12.9444 5.4375 13.7258 6.27665 13.6553 7.26321L13.2625 12.762C13.2135 13.4478 12.6429 13.9792 11.9554 13.9792C11.2678 13.9792 10.6972 13.4478 10.6482 12.762L10.2554 7.26321Z" fill="white"/>
    <circle cx="11.9555" cy="16.7248" r="1.5253" fill="white"/>
</svg> 