<svg width="24" height="24" viewBox="0 0 24 24" fill="none" xmlns="http://www.w3.org/2000/svg">
    <g clip-path="url(#clip0_3452_52750)">
        <path fill-rule="evenodd" clip-rule="evenodd" d="M8.02148 2.88266C8.02148 2.57721 8.25991 2.32959 8.55403 2.32959H15.4381C15.7322 2.32959 15.9706 2.57721 15.9706 2.88266C15.9706 3.18811 15.7322 3.43573 15.4381 3.43573H8.55403C8.25991 3.43573 8.02148 3.18811 8.02148 2.88266Z" fill="currentColor"/>
        <path fill-rule="evenodd" clip-rule="evenodd" d="M4.73055 3.43573C3.83339 3.43573 3.06509 4.23379 3.06509 5.26982V21.0599C3.06509 22.0959 3.83339 22.894 4.73055 22.894H19.2694C20.1666 22.894 20.9349 22.0959 20.9349 21.0599V5.26982C20.9349 4.23379 20.1666 3.43573 19.2694 3.43573H18.0254C17.7313 3.43573 17.4929 3.18811 17.4929 2.88266C17.4929 2.57721 17.7313 2.32959 18.0254 2.32959H19.2694C20.7992 2.32959 22 3.67003 22 5.26982V21.0599C22 22.6597 20.7992 24.0001 19.2694 24.0001H4.73055C3.20075 24.0001 2 22.6597 2 21.0599V5.26982C2 3.67003 3.20075 2.32959 4.73055 2.32959H5.97456C6.26868 2.32959 6.50711 2.57721 6.50711 2.88266C6.50711 3.18811 6.26868 3.43573 5.97456 3.43573H4.73055Z" fill="currentColor"/>
        <path fill-rule="evenodd" clip-rule="evenodd" d="M7.26375 1.10614C6.8703 1.10614 6.5065 1.46489 6.5065 1.95387V3.7691C6.5065 4.25808 6.8703 4.61683 7.26375 4.61683C7.66284 4.61683 8.02101 4.26026 8.02101 3.7691V1.95387C8.02101 1.46489 7.65721 1.10614 7.26375 1.10614ZM5.44141 1.95387C5.44141 0.90114 6.23766 0 7.26375 0C8.28985 0 9.0861 0.90114 9.0861 1.95387V3.7691C9.0861 4.81965 8.29948 5.72297 7.26375 5.72297C6.23766 5.72297 5.44141 4.82183 5.44141 3.7691V1.95387Z" fill="currentColor"/>
        <path fill-rule="evenodd" clip-rule="evenodd" d="M16.7281 1.10614C16.3347 1.10614 15.9709 1.46489 15.9709 1.95387V3.7691C15.9709 4.25808 16.3347 4.61683 16.7281 4.61683C17.132 4.61683 17.4902 4.25618 17.4854 3.77479L17.4853 3.7691H17.4854V1.95387C17.4854 1.46489 17.1216 1.10614 16.7281 1.10614ZM14.9058 1.95387C14.9058 0.90114 15.702 0 16.7281 0C17.7542 0 18.5505 0.90114 18.5505 1.95387V3.76649C18.5594 4.82547 17.758 5.72297 16.7281 5.72297C15.702 5.72297 14.9058 4.82183 14.9058 3.7691V1.95387Z" fill="currentColor"/>
        <path fill-rule="evenodd" clip-rule="evenodd" d="M21.6126 8.57489H2.3877V7.46875H21.6126V8.57489Z" fill="currentColor"/>
        <path fill-rule="evenodd" clip-rule="evenodd" d="M21.6126 13.713H2.3877V12.6068H21.6126V13.713Z" fill="currentColor"/>
        <path fill-rule="evenodd" clip-rule="evenodd" d="M21.6126 18.8533H2.3877V17.7472H21.6126V18.8533Z" fill="currentColor"/>
        <path fill-rule="evenodd" clip-rule="evenodd" d="M9.37613 8.02173V23.6046H8.31104V8.02173H9.37613Z" fill="currentColor"/>
        <path fill-rule="evenodd" clip-rule="evenodd" d="M15.6886 8.02197V23.6048H14.6235V8.02197H15.6886Z" fill="currentColor"/>
    </g>
    <defs>
    <clipPath id="clip0_3452_52750">
        <rect width="24" height="24" fill="white"/>
    </clipPath>
    </defs>
</svg>
