<svg width="24" height="24" viewBox="0 0 24 24" fill="none" xmlns="http://www.w3.org/2000/svg">
<path fill-rule="evenodd" clip-rule="evenodd" d="M3.48205 0.571328C4.49434 -0.274052 6.02664 -0.169152 6.90455 0.80563L10.2628 4.53449C11.184 5.5573 11.0697 7.10554 10.0075 7.99257L8.61684 9.15396C8.33105 9.39263 8.24946 9.77689 8.40303 10.0887C9.21244 11.732 9.8535 12.7712 10.6003 13.5973C11.3426 14.4184 12.2261 15.0696 13.5857 15.886C13.8791 16.0622 14.2719 16.0349 14.5521 15.8009L15.9719 14.6152C17.0341 13.7281 18.6419 13.8382 19.5631 14.861L22.898 18.5639C23.7888 19.553 23.6782 21.0503 22.6511 21.9081C19.8639 24.2357 15.7578 24.7739 12.6033 22.7421C7.63036 19.5392 4.3603 15.9951 1.30622 10.0508C-0.375899 6.7769 0.681397 2.91021 3.48205 0.571328ZM5.6224 1.87638C5.35861 1.58347 4.89817 1.55195 4.594 1.80597C2.31058 3.7129 1.52524 6.79174 2.82738 9.32613C5.758 15.0301 8.83564 18.3493 13.5468 21.3837C15.9797 22.9507 19.248 22.5868 21.5391 20.6734C21.8582 20.407 21.8925 19.9419 21.6158 19.6346L18.2809 15.9317C17.9739 15.5908 17.4379 15.5541 17.0839 15.8498L15.6641 17.0355C14.8402 17.7235 13.6343 17.8413 12.6876 17.2727C11.2682 16.4203 10.2227 15.6686 9.32022 14.6703C8.42221 13.677 7.70263 12.4803 6.86961 10.789C6.381 9.79699 6.65858 8.62609 7.5049 7.91932L8.89558 6.75793C9.24963 6.46225 9.28773 5.94617 8.98068 5.60523L5.6224 1.87638Z" fill="#0E64D8"/>
</svg>
