<svg width="24" height="24" viewBox="0 0 24 24" fill="none" xmlns="http://www.w3.org/2000/svg">
<g clip-path="url(#clip0_6920_6931)">
<path fill-rule="evenodd" clip-rule="evenodd" d="M5.23785 8.18342L1.60643 9.17897L4.42346 11.9911L4.44943 12.4904C4.70221 17.3503 8.69586 21.2 13.5685 21.2C18.6039 21.2 22.7003 17.089 22.7003 12C22.7003 6.91098 18.6039 2.8 13.5685 2.8C10.078 2.8 7.03881 4.77331 5.50075 7.68562L5.23785 8.18342ZM24.0003 12C24.0003 17.799 19.3298 22.5 13.5685 22.5C7.99313 22.5 3.43932 18.0975 3.15118 12.5579L0.283997 9.69571C-0.242183 9.17044 -0.00307322 8.27224 0.715371 8.07528L4.35122 7.07852C6.10392 3.75978 9.57403 1.5 13.5685 1.5C19.3298 1.5 24.0003 6.20101 24.0003 12Z" fill="currentColor"/>
<ellipse cx="9.39586" cy="12.0001" rx="1.25182" ry="1.26" fill="currentColor"/>
<ellipse cx="13.5687" cy="12.0001" rx="1.25182" ry="1.26" fill="currentColor"/>
<ellipse cx="17.7416" cy="12.0001" rx="1.25182" ry="1.26" fill="currentColor"/>
</g>
<defs>
<clipPath id="clip0_6920_6931">
<rect width="24.0006" height="21" fill="white" transform="translate(0 1.5)"/>
</clipPath>
</defs>
</svg>
