<svg width="30" height="30" viewBox="0 0 30 30" fill="none" xmlns="http://www.w3.org/2000/svg">
<g id="Shield Check" clip-path="url(#clip0_43_2950)">
<g id="shield-check--shield-protection-security-defend-crime-war-cover-check">
<path id="Subtract" fill-rule="evenodd" clip-rule="evenodd" d="M0 3.21429C0 1.45071 1.45714 0 3.21429 0H26.7857C28.5429 0 30 1.45286 30 3.21429V9.32786C30 18.1907 24.6214 26.4836 16.2621 29.745C15.8565 29.9105 15.4231 29.9978 14.985 30.0021C14.557 29.9938 14.1342 29.9066 13.7379 29.745C5.37857 26.4836 0 18.1907 0 9.32786V3.21429ZM22.6286 9.66C22.7788 9.50412 22.8959 9.31952 22.973 9.11725C23.0501 8.91499 23.0855 8.69924 23.0771 8.48295C23.0688 8.26666 23.0168 8.05428 22.9244 7.85856C22.832 7.66284 22.7009 7.48781 22.5392 7.34397C22.3774 7.20013 22.1883 7.09045 21.9831 7.0215C21.778 6.95255 21.561 6.92576 21.3452 6.94273C21.1294 6.9597 20.9193 7.02009 20.7274 7.12027C20.5355 7.22045 20.3658 7.35836 20.2286 7.52571L12.6386 16.0629L9.53571 13.7357C9.36687 13.6091 9.17474 13.5169 8.97029 13.4646C8.76584 13.4122 8.55308 13.4006 8.34414 13.4304C8.13521 13.4603 7.93421 13.531 7.7526 13.6385C7.57099 13.7461 7.41235 13.8883 7.28571 14.0571C7.15908 14.226 7.06695 14.4181 7.01457 14.6226C6.96219 14.827 6.95059 15.0398 6.98044 15.2487C7.01029 15.4576 7.08099 15.6587 7.18852 15.8403C7.29605 16.0219 7.4383 16.1805 7.60714 16.3071L11.8929 19.5214C12.2153 19.7629 12.6168 19.8744 13.0176 19.834C13.4184 19.7935 13.7894 19.6039 14.0571 19.3029L22.6286 9.66Z" fill="currentColor"/>
</g>
</g>
<defs>
<clipPath id="clip0_43_2950">
<rect width="30" height="30" fill="white"/>
</clipPath>
</defs>
</svg>
