<svg width="24" height="24" viewBox="0 0 24 24" fill="none" xmlns="http://www.w3.org/2000/svg">
<path fill-rule="evenodd" clip-rule="evenodd" d="M9.24632 1.39639C11.1842 1.011 13.1928 1.20879 15.0182 1.96476C16.8436 2.72072 18.4038 4.0009 19.5015 5.64344C20.5992 7.28598 21.1851 9.21709 21.1851 11.1926C21.1851 11.524 20.9165 11.7926 20.5851 11.7926C20.2538 11.7926 19.9851 11.524 19.9851 11.1926C19.9851 9.45448 19.4696 7.75541 18.5038 6.31021C17.538 4.86502 16.1652 3.73861 14.559 3.07344C12.9529 2.40828 11.1855 2.23424 9.48039 2.57334C7.77529 2.91244 6.20907 3.74944 4.97979 4.97849C3.75051 6.20754 2.91337 7.77342 2.57422 9.47813C2.23507 11.1828 2.40913 12.9498 3.0744 14.5556C3.73968 16.1614 4.86629 17.5339 6.31178 18.4996C7.75728 19.4653 9.45673 19.9807 11.1952 19.9807C11.5266 19.9807 11.7952 20.2493 11.7952 20.5807C11.7952 20.9121 11.5266 21.1807 11.1952 21.1807C9.21944 21.1807 7.28801 20.5949 5.64518 19.4974C4.00235 18.3999 2.72191 16.84 1.96578 15.0149C1.20965 13.1898 1.01181 11.1815 1.39728 9.24397C1.78276 7.30645 2.73422 5.52673 4.13134 4.12988C5.52847 2.73303 7.30849 1.78177 9.24632 1.39639ZM10.298 8.4761C10.6293 8.4761 10.898 8.74473 10.898 9.0761V12.103H13.9298C14.2611 12.103 14.5298 12.3717 14.5298 12.703C14.5298 13.0344 14.2611 13.303 13.9298 13.303H10.298H9.69797V12.703V9.0761C9.69797 8.74473 9.9666 8.4761 10.298 8.4761ZM22.8 22.8L17.406 21.5522L19.0483 19.9121L14.4365 15.296C14.2023 15.0615 14.2025 14.6817 14.437 14.4475C14.6715 14.2134 15.0514 14.2136 15.2856 14.448L19.8974 19.0642L21.5582 17.4056L22.8 22.8Z" fill="white"/>
</svg>
