<svg width="24" height="24" viewBox="0 0 24 24" fill="none" xmlns="http://www.w3.org/2000/svg">
<path d="M9.17465 1.39056C11.0967 1.0078 13.0889 1.20425 14.8994 1.95504C16.7099 2.70582 18.2572 3.97718 19.3458 5.60824C20.4344 7.23929 21.0154 9.15682 21.0154 11.1183C21.0154 11.4497 20.7468 11.7183 20.4154 11.7183C20.084 11.7183 19.8154 11.4497 19.8154 11.1183C19.8154 9.39385 19.3046 7.70815 18.3477 6.2744C17.3908 4.84066 16.0308 3.7233 14.4398 3.06351C12.8487 2.40372 11.098 2.2311 9.40901 2.56745C7.72001 2.9038 6.16847 3.73403 4.95063 4.95327C3.73278 6.17251 2.90334 7.726 2.5673 9.41733C2.23126 11.1087 2.40373 12.8618 3.06288 14.4549C3.72204 16.0481 4.83822 17.4097 6.27019 18.3676C7.70215 19.3255 9.3856 19.8367 11.1077 19.8367C11.439 19.8367 11.7077 20.1053 11.7077 20.4367C11.7077 20.7681 11.439 21.0367 11.1077 21.0367C9.14796 21.0367 7.23231 20.4549 5.60298 19.365C3.97365 18.2751 2.70385 16.726 1.95404 14.9137C1.20424 13.1014 1.00807 11.1073 1.3903 9.18348C1.77254 7.25964 2.71605 5.49238 4.10162 4.10522C5.48719 2.71806 7.25261 1.77332 9.17465 1.39056Z" fill="white"/>
<path d="M10.2182 8.41757C10.5496 8.41757 10.8182 8.68619 10.8182 9.01757V12.0176H13.8182C14.1496 12.0176 14.4182 12.2862 14.4182 12.6176C14.4182 12.9489 14.1496 13.2176 13.8182 13.2176H9.61823V9.01757C9.61823 8.68619 9.88685 8.41757 10.2182 8.41757Z" fill="white"/>
<path d="M14.3279 14.3422L19.6754 15.5777L18.0553 17.1996L22.6259 21.7754C22.8601 22.0099 22.8601 22.39 22.6259 22.6244C22.3918 22.8589 22.0121 22.8589 21.7779 22.6244L17.2073 18.0486L15.5619 19.6959L14.3279 14.3422Z" fill="white"/>
</svg>
