<svg width="24" height="24" viewBox="0 0 24 24" fill="none" xmlns="http://www.w3.org/2000/svg">
    <path fill-rule="evenodd" clip-rule="evenodd" d="M6.35098 15.9538C5.88301 16.4218 5.88301 17.1805 6.35098 17.6484C6.81895 18.1164 7.57769 18.1164 8.04566 17.6484L11.9996 13.6946L15.9543 17.6491C16.4222 18.1171 17.181 18.1171 17.649 17.6491C18.1169 17.1812 18.1169 16.4225 17.649 15.9545L13.6943 12L17.6489 8.04559C18.1168 7.57763 18.1168 6.81892 17.6489 6.35097C17.1809 5.88301 16.4222 5.88301 15.9542 6.35097L11.9996 10.3054L8.04575 6.35167C7.57777 5.88371 6.81904 5.88371 6.35106 6.35167C5.88309 6.81962 5.88309 7.57833 6.35106 8.04628L10.3049 12L6.35098 15.9538Z" fill="#4A4A4A"/>
</svg>