<svg width="24" height="24" viewBox="0 0 24 24" fill="none" xmlns="http://www.w3.org/2000/svg">
<path fill-rule="evenodd" clip-rule="evenodd" d="M12.0002 2.75871C6.8964 2.75871 2.75896 6.89616 2.75896 12C2.75896 17.1037 6.8964 21.2412 12.0002 21.2412C17.104 21.2412 21.2414 17.1037 21.2414 12C21.2414 6.89616 17.104 2.75871 12.0002 2.75871ZM1.2002 12C1.2002 6.03527 6.03552 1.19995 12.0002 1.19995C17.9649 1.19995 22.8002 6.03527 22.8002 12C22.8002 17.9646 17.9649 22.8 12.0002 22.8C6.03552 22.8 1.2002 17.9646 1.2002 12Z" fill="#4A4A4A"/>
<path d="M10.8868 6.767C11.3172 6.767 11.6662 7.11594 11.6662 7.54638L11.6662 12.3052L14.6334 14.1185C15.0007 14.3429 15.1165 14.8226 14.892 15.1899C14.6676 15.5572 14.1879 15.673 13.8206 15.4485L10.7468 13.5701C10.3496 13.3274 10.1074 12.8955 10.1074 12.43V7.54638C10.1074 7.11594 10.4564 6.767 10.8868 6.767Z" fill="#4A4A4A"/>
</svg>
