<svg width="24" height="16" viewBox="0 0 24 16" fill="none" xmlns="http://www.w3.org/2000/svg">
<path fill-rule="evenodd" clip-rule="evenodd" d="M21.2178 1.5H2.78219L11.2338 8.05641C11.6847 8.40621 12.3153 8.40621 12.7662 8.05641L21.2178 1.5ZM1.5 2.40376V13.3034L7.41593 6.99309L1.5 2.40376ZM21.5657 14.5H2.4343L8.6063 7.91653L10.3144 9.2416C11.3064 10.0111 12.6936 10.0111 13.6856 9.2416L15.3937 7.91653L21.5657 14.5ZM22.5 13.3034V2.40376L16.5841 6.99309L22.5 13.3034ZM0 2C0 0.895431 0.895431 0 2 0H22C23.1046 0 24 0.895431 24 2V14C24 15.1046 23.1046 16 22 16H2C0.89543 16 0 15.1046 0 14V2Z" fill="#0E64D8"/>
</svg>
