<svg width="24" height="24" viewBox="0 0 24 24" fill="none" xmlns="http://www.w3.org/2000/svg">
<path d="M12 5.75C14.8936 5.75001 17.2117 7.34191 18.8493 9.02316C19.6623 9.8578 20.2877 10.695 20.7097 11.3239C20.8916 11.595 21.0348 11.826 21.138 11.9997C21.0348 12.1734 20.8915 12.4044 20.7096 12.6756C20.2876 13.3045 19.6622 14.1418 18.8492 14.9765C17.2116 16.6579 14.8934 18.2499 12 18.25C9.10654 18.2501 6.78843 16.6581 5.1508 14.9767C4.33782 14.1419 3.71237 13.3046 3.29038 12.6757C3.10845 12.4045 2.96524 12.1734 2.86196 11.9997C2.96523 11.826 3.10843 11.595 3.29034 11.3239C3.71231 10.695 4.33775 9.85778 5.15071 9.02315C6.78831 7.34189 9.10644 5.74999 12 5.75ZM2.66527 11.6534C2.66521 11.6533 2.66521 11.6533 2.66526 11.6534L2.66527 11.6534Z" stroke="#4A4A4A" stroke-width="1.5"/>
<circle cx="12" cy="12" r="2.5" fill="#4A4A4A"/>
</svg>
