<svg width="24" height="24" viewBox="0 0 24 24" fill="none" xmlns="http://www.w3.org/2000/svg">
<path fill-rule="evenodd" clip-rule="evenodd" d="M5.59099 4.66968C5.2981 4.37679 4.82322 4.37679 4.53033 4.66968C4.23744 4.96258 4.23744 5.43745 4.53033 5.73034L6.45361 7.65363C3.57042 9.72637 2 12.7497 2 12.7497C2 12.7497 5.63604 19.7503 12 19.75C13.9291 19.7499 15.6076 19.1066 17.0101 18.2101L19.026 20.226C19.3189 20.5189 19.7938 20.5189 20.0867 20.226C20.3796 19.9331 20.3796 19.4583 20.0867 19.1654L5.59099 4.66968ZM15.9202 17.1202L13.5285 14.7285C13.1059 15.0554 12.5757 15.25 12 15.25C10.6193 15.25 9.5 14.1307 9.5 12.75C9.5 12.1744 9.69457 11.6441 10.0215 11.2215L7.53011 8.73012C6.85024 9.19526 6.23483 9.73503 5.68797 10.2965C4.91429 11.0908 4.31678 11.8902 3.91314 12.4918C3.85201 12.5829 3.79554 12.6691 3.74381 12.7497C3.79556 12.8304 3.85204 12.9167 3.9132 13.0078C4.31685 13.6095 4.91438 14.409 5.68808 15.2034C7.25884 16.8162 9.39507 18.2501 11.9999 18.25C13.4595 18.25 14.7719 17.7998 15.9202 17.1202ZM19.521 14.8966C19.2445 14.6201 19.2273 14.1791 19.4661 13.8695C19.7073 13.5567 19.9147 13.2643 20.0868 13.0077C20.148 12.9166 20.2044 12.8303 20.2562 12.7497C20.2044 12.6691 20.148 12.5829 20.0869 12.4918C19.6832 11.8902 19.0857 11.0908 18.312 10.2965C16.7413 8.6839 14.605 7.25002 12 7.25001C11.9204 7.25001 11.8437 7.21933 11.7874 7.16306L11.5676 6.94318C11.1201 6.49569 11.3671 5.75001 12 5.75001C18.3641 5.75003 22 12.7497 22 12.7497C22 12.7497 21.5225 13.669 20.6107 14.8413C20.3414 15.1876 19.8312 15.2069 19.521 14.8966Z" fill="#4A4A4A"/>
</svg>
