<svg width="24" height="24" viewBox="0 0 24 24" fill="none" xmlns="http://www.w3.org/2000/svg">
<path d="M21.25 11.9996C21.25 17.1083 17.1086 21.2496 12 21.2496C6.89137 21.2496 2.75 17.1083 2.75 11.9996C2.75 6.891 6.89137 2.74963 12 2.74963C17.1086 2.74963 21.25 6.891 21.25 11.9996Z" stroke="#B80017" stroke-width="1.5"/>
<path fill-rule="evenodd" clip-rule="evenodd" d="M11.9994 6.99963C11.1235 6.99963 10.434 7.74739 10.505 8.62048L10.8274 12.5857C10.8771 13.1962 11.387 13.6663 11.9994 13.6663C12.6119 13.6663 13.1218 13.1962 13.1714 12.5857L13.4938 8.62048C13.5648 7.74739 12.8754 6.99963 11.9994 6.99963ZM11.9996 16.9997C12.748 16.9997 13.3547 16.4667 13.3547 15.8092C13.3547 15.1518 12.748 14.6188 11.9996 14.6188C11.2511 14.6188 10.6444 15.1518 10.6444 15.8092C10.6444 16.4667 11.2511 16.9997 11.9996 16.9997Z" fill="#B80017"/>
</svg>
