<svg width="30" height="30" viewBox="0 0 30 30" fill="none" xmlns="http://www.w3.org/2000/svg">
<g id="Location Pin 3" clip-path="url(#clip0_43_2946)">
<g id="location-pin-3--navigation-map-maps-pin-gps-location">
<path id="Union" fill-rule="evenodd" clip-rule="evenodd" d="M15 0C20.6186 0 25.2986 4.68 25.2986 10.2964C25.2986 12.1307 24.6686 13.9393 23.7879 15.5764C22.9029 17.2221 21.7329 18.7564 20.5715 20.0636C19.5589 21.2007 18.4699 22.2675 17.3122 23.2564C16.9341 23.5804 16.5438 23.8899 16.1422 24.1843C16.0067 24.2827 15.8673 24.3757 15.7243 24.4629C15.6057 24.5333 15.4809 24.5929 15.3515 24.6407C15.0649 24.7333 14.7534 24.7102 14.4836 24.5764C14.4116 24.5423 14.3415 24.5044 14.2736 24.4629C14.1298 24.3736 13.9897 24.2785 13.8536 24.1779C13.4526 23.8821 13.063 23.5712 12.6857 23.2457C11.5293 22.2515 10.4411 21.1805 9.4286 20.04C8.26718 18.7286 7.09718 17.19 6.21432 15.5507C5.3336 13.9179 4.70146 12.1157 4.70146 10.2964C4.70146 4.68 9.38146 0 15 0ZM15 13.3714C14.1845 13.3714 13.4024 13.0475 12.8257 12.4708C12.249 11.8941 11.925 11.112 11.925 10.2964C11.925 9.48089 12.249 8.69875 12.8257 8.12208C13.4024 7.5454 14.1845 7.22143 15 7.22143C15.8156 7.22143 16.5977 7.5454 17.1744 8.12208C17.7511 8.69875 18.075 9.48089 18.075 10.2964C18.075 11.112 17.7511 11.8941 17.1744 12.4708C16.5977 13.0475 15.8156 13.3714 15 13.3714ZM21.6429 21.7629C22.0372 21.3193 22.4315 20.8543 22.8215 20.37H25.6993C26.1279 20.37 26.5136 20.6271 26.685 21.0193L29.8929 28.5086C29.9628 28.6716 29.9911 28.8495 29.9753 29.0261C29.9595 29.2028 29.9001 29.3728 29.8024 29.5209C29.7047 29.6689 29.5717 29.7904 29.4155 29.8744C29.2592 29.9584 29.0846 30.0023 28.9072 30.0021H1.09289C0.915498 30.0023 0.740844 29.9584 0.5846 29.8744C0.428356 29.7904 0.295412 29.6689 0.197701 29.5209C0.0999888 29.3728 0.0405664 29.2028 0.0247665 29.0261C0.0089665 28.8495 0.0372834 28.6716 0.107176 28.5086L3.31718 21.0193C3.39985 20.8264 3.53733 20.6621 3.71256 20.5467C3.88779 20.4312 4.09306 20.3698 4.30289 20.37H7.20646C7.58575 20.8414 7.97146 21.2979 8.35717 21.7329C9.77575 23.3314 11.2072 24.6814 12.3215 25.635C12.8786 26.1129 13.365 26.4964 13.7379 26.7664C13.9222 26.9014 14.0915 27.015 14.235 27.1029C14.3597 27.1868 14.4962 27.2518 14.64 27.2957C14.9327 27.3919 15.2515 27.3688 15.5272 27.2314C15.6129 27.1929 15.6922 27.1457 15.7629 27.105C15.9324 27.0012 16.0976 26.8904 16.2579 26.7729C16.6307 26.5029 17.115 26.1214 17.6743 25.6479C18.7886 24.7007 20.2243 23.3571 21.6407 21.7629H21.6429Z" fill="currentColor"/>
</g>
</g>
<defs>
<clipPath id="clip0_43_2946">
<rect width="30" height="30" fill="white"/>
</clipPath>
</defs>
</svg>
