<svg width="25" height="24" viewBox="0 0 25 24" fill="none" xmlns="http://www.w3.org/2000/svg">
<path fill-rule="evenodd" clip-rule="evenodd" d="M18.9965 9.92503H6.35506C5.3862 9.92503 4.60078 10.6645 4.60078 11.5767V19.0067C4.60078 19.9189 5.3862 20.6583 6.35506 20.6583H18.9965C19.9654 20.6583 20.7508 19.9189 20.7508 19.0067V11.5767C20.7508 10.6645 19.9654 9.92503 18.9965 9.92503ZM6.35506 8.58337C4.59919 8.58337 3.17578 9.92354 3.17578 11.5767V19.0067C3.17578 20.6598 4.59919 22 6.35506 22H18.9965C20.7524 22 22.1758 20.6598 22.1758 19.0067V11.5767C22.1758 9.92354 20.7524 8.58337 18.9965 8.58337H6.35506Z" fill="#BABABA"/>
<path fill-rule="evenodd" clip-rule="evenodd" d="M8.87578 5.64439C8.87578 3.63165 10.6338 2 12.8024 2C14.9711 2 16.7291 3.63165 16.7291 5.64439V8.58341H15.2091V5.64439C15.2091 4.41077 14.1316 3.41073 12.8024 3.41073C11.4733 3.41073 10.3958 4.41077 10.3958 5.64439V8.58341H8.87578V5.64439Z" fill="#BABABA"/>
<path fill-rule="evenodd" clip-rule="evenodd" d="M12.5786 13.0199C11.8357 13.0199 11.273 13.5513 11.273 14.1625C11.273 14.5458 11.4895 14.8927 11.8375 15.1033L12.094 15.2585L12.0939 17.3859C12.0939 17.6343 12.3108 17.8356 12.5784 17.8356C12.846 17.8356 13.0629 17.6343 13.0629 17.3859L13.0629 15.2586L13.3194 15.1034C13.6675 14.8928 13.8841 14.5459 13.8841 14.1625C13.8841 13.5513 13.3214 13.0199 12.5786 13.0199ZM10.1426 14.1625C10.1426 12.9321 11.255 11.9707 12.5786 11.9707C13.9021 11.9707 15.0145 12.9321 15.0145 14.1625C15.0145 14.8206 14.6928 15.4053 14.1933 15.8036L14.1933 17.3859C14.1933 18.2137 13.4703 18.8847 12.5784 18.8847C11.6865 18.8847 10.9635 18.2137 10.9635 17.3859L10.9636 15.8034C10.4642 15.4051 10.1426 14.8204 10.1426 14.1625Z" fill="#BABABA"/>
</svg>
