<svg width="24" height="25" viewBox="0 0 24 25" fill="none" xmlns="http://www.w3.org/2000/svg">
    <path fill-rule="evenodd" clip-rule="evenodd" d="M12.3335 3.75219C10.3208 3.39166 8.24888 3.76762 6.48287 4.81194C4.71726 5.85604 3.37216 7.50014 2.6802 9.45214C1.98833 11.4039 1.99248 13.5417 2.69194 15.4906C3.39149 17.4399 4.74299 19.0785 6.51269 20.1155C8.28277 21.1527 10.3562 21.5202 12.3675 21.1515C14.3786 20.7829 16.1947 19.7026 17.4983 18.1048L16.336 17.1566C15.2547 18.4819 13.7531 19.3725 12.097 19.6761C10.4411 19.9797 8.73254 19.6777 7.27102 18.8213C5.80912 17.9647 4.68626 16.607 4.10377 14.9839C3.5212 13.3607 3.51773 11.579 4.094 9.95331C4.67019 8.32789 5.78779 6.96563 7.24639 6.10308C8.70461 5.24076 10.412 4.93186 12.0691 5.22869C13.7263 5.52555 15.2314 6.41009 16.3177 7.73097C17.2312 8.84153 17.7989 10.2004 17.9568 11.6329L16.4669 10.1465L15.3954 11.227L18.202 14.0271L18.7837 14.6075L19.3145 13.9488L21.8757 10.7706L20.722 9.84676L19.4437 11.433C19.2489 9.72729 18.5693 8.10711 17.4762 6.77814C16.1664 5.18562 14.3461 4.11268 12.3335 3.75219Z" fill="#0E64D8"/>
</svg>
