<svg width="24" height="24" viewBox="0 0 24 24" fill="none" xmlns="http://www.w3.org/2000/svg">
<g id="Group">
<path id="Union" fill-rule="evenodd" clip-rule="evenodd" d="M18.0254 16.6226L18.031 16.617C19.3082 15.0237 20.0029 13.042 20 11C20 6.032 15.968 2 11 2C6.032 2 2 6.032 2 11C2 15.968 6.032 20 11 20C13.042 20.0029 15.0237 19.3082 16.617 18.031L16.6226 18.0254C16.6484 18.0587 16.6766 18.0908 16.7071 18.1214L20.2427 21.6569C20.6332 22.0474 21.2663 22.0474 21.6569 21.6569C22.0474 21.2664 22.0474 20.6332 21.6569 20.2427L18.1213 16.7072C18.0908 16.6766 18.0587 16.6484 18.0254 16.6226ZM18 11C18.0029 12.8204 17.2941 14.5699 16.025 15.875L15.875 16.025C14.5699 17.2941 12.8204 18.0029 11 18C7.132 18 4 14.867 4 11C4 7.132 7.132 4 11 4C14.867 4 18 7.132 18 11Z" fill="#4A4A4A"/>
</g>
</svg>
