<svg width="18" height="18" viewBox="0 0 18 18" fill="none" xmlns="http://www.w3.org/2000/svg">
<path fill-rule="evenodd" clip-rule="evenodd" d="M6.5 6.5C7.80622 6.5 8.91746 5.66519 9.32929 4.5H16.5C17.0523 4.5 17.5 4.05228 17.5 3.5C17.5 2.94772 17.0523 2.5 16.5 2.5H9.32929C8.91746 1.33481 7.80622 0.5 6.5 0.5C5.19378 0.5 4.08254 1.33481 3.67071 2.5H1.5C0.947715 2.5 0.5 2.94772 0.5 3.5C0.5 4.05228 0.947715 4.5 1.5 4.5H3.67071C4.08254 5.66519 5.19378 6.5 6.5 6.5ZM6.5 4.5C7.05228 4.5 7.5 4.05228 7.5 3.5C7.5 2.94772 7.05228 2.5 6.5 2.5C5.94772 2.5 5.5 2.94772 5.5 3.5C5.5 4.05228 5.94772 4.5 6.5 4.5ZM14.8293 15.5C14.4175 16.6652 13.3062 17.5 12 17.5C10.6938 17.5 9.58254 16.6652 9.17071 15.5H1.5C0.947715 15.5 0.5 15.0523 0.5 14.5C0.5 13.9477 0.947715 13.5 1.5 13.5H9.17071C9.58254 12.3348 10.6938 11.5 12 11.5C13.3062 11.5 14.4175 12.3348 14.8293 13.5H16.5C17.0523 13.5 17.5 13.9477 17.5 14.5C17.5 15.0523 17.0523 15.5 16.5 15.5H14.8293ZM13 14.5C13 15.0523 12.5523 15.5 12 15.5C11.4477 15.5 11 15.0523 11 14.5C11 13.9477 11.4477 13.5 12 13.5C12.5523 13.5 13 13.9477 13 14.5Z" fill="#4A4A4A"/>
</svg>
