<svg width="16" height="16" viewBox="0 0 16 16" fill="none" xmlns="http://www.w3.org/2000/svg">
<g id="Icon/Cross/Small ">
<path id="Close Small" fill-rule="evenodd" clip-rule="evenodd" d="M4.23399 10.6359C3.922 10.9478 3.922 11.4536 4.23399 11.7656C4.54597 12.0776 5.05179 12.0776 5.36378 11.7656L7.99974 9.12975L10.6362 11.7661C10.9482 12.0781 11.454 12.0781 11.766 11.7661C12.078 11.4541 12.078 10.9483 11.766 10.6363L9.12953 8L11.7659 5.36372C12.0779 5.05175 12.0779 4.54595 11.7659 4.23398C11.4539 3.92201 10.9481 3.92201 10.6361 4.23398L7.99974 6.87026L5.36383 4.23444C5.05185 3.92247 4.54603 3.92247 4.23404 4.23444C3.92206 4.54641 3.92206 5.05222 4.23404 5.36419L6.86996 8L4.23399 10.6359Z" fill="#4A4A4A"/>
</g>
</svg>
