<svg width="80" height="80" viewBox="0 0 80 80" fill="none" xmlns="http://www.w3.org/2000/svg">
<path d="M28.1114 62.9341L10.0693 45.0303C9.3846 44.3493 9 43.4263 9 42.464C9 41.5017 9.3846 40.5787 10.0693 39.8977L12.2613 37.7184C12.9471 37.0385 13.8766 36.6567 14.8457 36.6567C15.8149 36.6567 16.7444 37.0385 17.4302 37.7184L30.5453 50.7328L61.4324 18.141C62.097 17.4408 63.0142 17.031 63.9828 17.0017C64.9514 16.9724 65.8921 17.3258 66.5985 17.9845L68.8495 20.094C69.5556 20.754 69.9688 21.6654 69.9983 22.6279C70.0278 23.5903 69.6713 24.525 69.0071 25.2265L33.3676 62.8531C33.032 63.2082 32.6279 63.4927 32.1794 63.6897C31.7309 63.8866 31.2471 63.992 30.7568 63.9996C30.2664 64.0071 29.7795 63.9167 29.3251 63.7337C28.8706 63.5506 28.4579 63.2787 28.1114 62.9341Z" fill="#2C842E"/>
</svg>
