<svg width="24" height="24" viewBox="0 0 24 24" fill="none" xmlns="http://www.w3.org/2000/svg">
<path fill-rule="evenodd" clip-rule="evenodd" d="M12 22.4717C17.7708 22.4717 22.4633 17.7913 22.4633 12C22.4633 6.20871 17.7708 1.5283 12 1.5283C6.22924 1.5283 1.53672 6.20871 1.53672 12C1.53672 17.7913 6.22924 22.4717 12 22.4717ZM12 24C18.6274 24 24 18.6274 24 12C24 5.37258 18.6274 0 12 0C5.37258 0 0 5.37258 0 12C0 18.6274 5.37258 24 12 24Z" fill="currentColor"/>
<path d="M10.5195 14.7352C10.5195 13.9429 10.6148 13.3118 10.8055 12.8421C10.9961 12.3724 11.3438 11.9112 11.8485 11.4584C12.3588 11 12.6981 10.6293 12.8663 10.3464C13.0346 10.0577 13.1187 9.75496 13.1187 9.43804C13.1187 8.48162 12.6813 8.00341 11.8065 8.00341C11.3915 8.00341 11.0578 8.13357 10.8055 8.3939C10.5587 8.64857 10.4297 9.00228 10.4185 9.45502H7.97913C7.99034 8.37409 8.33522 7.52803 9.01377 6.91682C9.69792 6.30562 10.6288 6.00001 11.8065 6.00001C12.9953 6.00001 13.9178 6.29147 14.5739 6.87438C15.23 7.45163 15.5581 8.2694 15.5581 9.32769C15.5581 9.80873 15.4515 10.2643 15.2384 10.6944C15.0253 11.1189 14.6524 11.5914 14.1197 12.1121L13.4383 12.7657C13.0121 13.1788 12.7682 13.6627 12.7065 14.2173L12.6729 14.7352H10.5195ZM10.2755 17.3413C10.2755 16.9621 10.4017 16.6508 10.654 16.4075C10.912 16.1585 11.2401 16.034 11.6382 16.034C12.0364 16.034 12.3616 16.1585 12.614 16.4075C12.8719 16.6508 13.0009 16.9621 13.0009 17.3413C13.0009 17.7148 12.8747 18.0232 12.6224 18.2666C12.3756 18.5099 12.0476 18.6316 11.6382 18.6316C11.2288 18.6316 10.898 18.5099 10.6456 18.2666C10.3989 18.0232 10.2755 17.7148 10.2755 17.3413Z" fill="currentColor"/>
</svg>
