<svg width="25" height="24" viewBox="0 0 25 24" fill="none" xmlns="http://www.w3.org/2000/svg">
<g clip-path="url(#clip0_9195_4871)">
<path d="M8.55078 19H6.17578C4.67578 18.8215 1.67578 17.5002 1.67578 13.643C1.67578 11.5 3.07578 8.71425 6.67578 8.28568C7.67578 5.60715 9.67578 4 13.1758 4C17.4174 4 19.6758 8 19.6758 10C21.1758 10 23.6758 11.5 23.6758 14.7143C23.6758 17.3929 21.1758 19.0001 19.6758 19H16.8008" stroke="#BABABA" stroke-width="1.5" stroke-linecap="round" stroke-linejoin="round"/>
<path d="M8.67578 19H16.6758" stroke="#BABABA" stroke-width="1.5" stroke-linecap="round" stroke-linejoin="round"/>
<path fill-rule="evenodd" clip-rule="evenodd" d="M8.23528 11.5897C8.2721 9.04613 10.3556 6.99998 12.9142 6.99998C13.7153 6.99863 14.5033 7.20334 15.2029 7.59452C15.9026 7.98571 16.4905 8.5503 16.9104 9.23433C16.9607 9.32107 16.9751 9.42405 16.9507 9.52132C16.9263 9.61859 16.865 9.70245 16.7798 9.75502C16.6946 9.8076 16.5923 9.82473 16.4947 9.80275C16.3971 9.78078 16.3119 9.72145 16.2573 9.63741C15.906 9.06524 15.4142 8.59302 14.8289 8.26593C14.2435 7.93884 13.5843 7.76781 12.9142 7.76921C10.7739 7.76921 9.04025 9.47587 9.00292 11.5887L9.20748 11.3851C9.27971 11.3132 9.37745 11.273 9.47921 11.2734C9.58097 11.2738 9.67841 11.3147 9.75009 11.3871C9.82178 11.4596 9.86183 11.5576 9.86145 11.6596C9.86107 11.7617 9.82028 11.8594 9.74805 11.9312L8.88887 12.7856C8.81704 12.857 8.71999 12.8971 8.61884 12.8971C8.5177 12.8971 8.42065 12.857 8.34882 12.7856L7.48964 11.9312C7.45384 11.8957 7.42538 11.8534 7.40588 11.8068C7.38638 11.7602 7.37622 11.7103 7.37598 11.6597C7.37574 11.6092 7.38543 11.5591 7.4045 11.5124C7.42356 11.4656 7.45162 11.423 7.48708 11.3871C7.52254 11.3513 7.56471 11.3227 7.61117 11.3032C7.65763 11.2836 7.70747 11.2734 7.75786 11.2732C7.80824 11.2729 7.85818 11.2827 7.90482 11.3018C7.95147 11.3209 7.9939 11.349 8.02969 11.3846L8.23528 11.5897ZM16.8557 11.2138C16.9275 11.1426 17.0245 11.1026 17.1255 11.1026C17.2265 11.1026 17.3234 11.1426 17.3952 11.2138L18.2575 12.0682C18.2943 12.1034 18.3237 12.1457 18.344 12.1925C18.3644 12.2393 18.3752 12.2896 18.3759 12.3407C18.3767 12.3917 18.3673 12.4424 18.3483 12.4897C18.3293 12.5371 18.3011 12.5801 18.2653 12.6164C18.2295 12.6528 18.1869 12.6816 18.1399 12.7012C18.0929 12.7208 18.0425 12.7309 17.9916 12.7308C17.9408 12.7307 17.8904 12.7204 17.8435 12.7006C17.7966 12.6808 17.7541 12.6518 17.7185 12.6153L17.5088 12.4077C17.473 14.9538 15.3808 17 12.814 17C12.0109 17.0019 11.2207 16.7976 10.5187 16.4066C9.81667 16.0156 9.22617 15.4508 8.80346 14.7661C8.777 14.7231 8.75925 14.6753 8.75121 14.6254C8.74317 14.5755 8.74501 14.5246 8.75663 14.4754C8.76824 14.4262 8.78939 14.3798 8.81888 14.3389C8.84837 14.2979 8.88562 14.2632 8.92851 14.2366C8.97139 14.2101 9.01906 14.1923 9.0688 14.1842C9.11855 14.1762 9.16939 14.178 9.21842 14.1897C9.26745 14.2013 9.31372 14.2225 9.35458 14.2521C9.39543 14.2817 9.43008 14.319 9.45654 14.362C9.81049 14.935 10.3049 15.4076 10.8926 15.7347C11.4803 16.0619 12.1418 16.2326 12.814 16.2307C14.965 16.2307 16.7059 14.5215 16.7417 12.4087L16.533 12.6153C16.4606 12.6871 16.3628 12.7271 16.2611 12.7265C16.1593 12.7259 16.0619 12.6848 15.9904 12.6123C15.9188 12.5397 15.879 12.4416 15.8795 12.3396C15.8801 12.2375 15.9211 12.1399 15.9935 12.0682L16.8557 11.2138Z" fill="#BABABA" stroke="#BABABA" stroke-width="0.6"/>
</g>
<defs>
<clipPath id="clip0_9195_4871">
<rect width="24" height="24" fill="white" transform="translate(0.675781)"/>
</clipPath>
</defs>
</svg>
