<svg width="25" height="16" viewBox="0 0 25 16" fill="none" xmlns="http://www.w3.org/2000/svg">
<path fill-rule="evenodd" clip-rule="evenodd" d="M11.8624 13.7701C15.2069 13.7701 17.8379 11.143 17.8379 8C17.8379 4.85703 15.2069 2.22992 11.8624 2.22992C8.51793 2.22992 5.88698 4.85703 5.88698 8C5.88698 11.143 8.51793 13.7701 11.8624 13.7701ZM19.5171 8.86496C19.0765 12.5997 15.8174 15.5 11.8624 15.5C7.90741 15.5 4.64836 12.5997 4.20775 8.86496H1.36496C0.887255 8.86496 0.5 8.4777 0.5 8C0.5 7.5223 0.887255 7.13504 1.36496 7.13504H4.20775C4.64836 3.40032 7.90741 0.5 11.8624 0.5C15.8174 0.5 19.0765 3.40032 19.5171 7.13504H21.6082L21.038 6.37723C20.7508 5.99551 20.8274 5.45323 21.2091 5.16602C21.5909 4.87881 22.1331 4.95542 22.4204 5.33714L24.0916 7.55831L24.4975 8.09779L24.0727 8.62255L22.4015 10.6872C22.1009 11.0585 21.5563 11.1159 21.185 10.8153C20.8137 10.5148 20.7563 9.97014 21.0569 9.59883L21.6509 8.86496H19.5171ZM14.6624 9.12509C14.668 9.59793 14.2815 9.98125 13.799 9.98125L11.2491 9.98125C10.5681 9.98125 10.0117 9.43602 10.0117 8.76861L10.0117 5.74004C10.0117 5.26723 10.4029 4.88843 10.8854 4.89397C11.3679 4.8995 11.7591 5.28727 11.7591 5.76008L11.759 8.26894L13.7785 8.26894C14.261 8.26894 14.6567 8.65225 14.6624 9.12509ZM22.2796 8.0273V8.08832L22.3033 8.05892L22.2796 8.0273Z" fill="#2C842E"/>
</svg>
