<svg width="24" height="24" viewBox="0 0 24 24" fill="none" xmlns="http://www.w3.org/2000/svg">
<path fill-rule="evenodd" clip-rule="evenodd" d="M12 3.75002C10.6763 3.74768 9.38135 4.13664 8.278 4.86802C8.19601 4.92584 8.10325 4.96663 8.00521 4.98796C7.90717 5.00929 7.80584 5.01073 7.70724 4.9922C7.60863 4.97367 7.51474 4.93554 7.43113 4.88008C7.34753 4.82461 7.2759 4.75293 7.22049 4.66928C7.16508 4.58563 7.12702 4.49172 7.10856 4.3931C7.0901 4.29448 7.09162 4.19316 7.11302 4.09513C7.13442 3.99711 7.17527 3.90437 7.23315 3.82242C7.29104 3.74047 7.36478 3.67096 7.45 3.61802C8.69347 2.79589 10.1364 2.32604 11.6256 2.25838C13.1147 2.19073 14.5943 2.5278 15.9072 3.23379C17.2201 3.93977 18.3172 4.98828 19.0819 6.26788C19.8465 7.54748 20.2502 9.01035 20.25 10.501C20.2535 13.4254 19.7038 16.324 18.63 19.044C18.5552 19.2265 18.4115 19.3722 18.23 19.4495C18.0486 19.5268 17.844 19.5295 17.6605 19.4571C17.4771 19.3846 17.3296 19.2428 17.2499 19.0624C17.1703 18.8819 17.1649 18.6774 17.235 18.493C18.2396 15.9481 18.7537 13.2361 18.75 10.5C18.75 8.70981 18.0388 6.99292 16.773 5.72705C15.5071 4.46118 13.7902 3.75002 12 3.75002ZM6.157 5.73902C6.2391 5.7935 6.30966 5.86362 6.36466 5.94538C6.41965 6.02713 6.45799 6.11893 6.47749 6.21551C6.49699 6.31209 6.49727 6.41157 6.47831 6.50826C6.45936 6.60495 6.42153 6.69695 6.367 6.77902C5.63616 7.8822 5.24756 9.17672 5.25 10.5C5.25 12.113 4.787 13.62 3.985 14.893C3.87892 15.0614 3.71027 15.1808 3.51617 15.2249C3.32207 15.2689 3.11842 15.2341 2.95 15.128C2.78159 15.0219 2.66222 14.8533 2.61815 14.6592C2.57408 14.4651 2.60892 14.2614 2.715 14.093C3.39322 13.0175 3.75213 11.7715 3.75 10.5C3.75 8.82002 4.253 7.25402 5.117 5.95002C5.1714 5.86784 5.24147 5.79719 5.32319 5.7421C5.40491 5.68701 5.49669 5.64857 5.59327 5.62898C5.68986 5.60938 5.78936 5.60901 5.88609 5.6279C5.98282 5.64678 6.07488 5.68454 6.157 5.73902ZM12 7.50002C11.2044 7.50002 10.4413 7.81609 9.87868 8.3787C9.31607 8.94131 9 9.70437 9 10.5C9 13.6 7.824 16.427 5.895 18.556C5.82882 18.629 5.7489 18.6883 5.65981 18.7304C5.57072 18.7726 5.4742 18.7967 5.37577 18.8016C5.27734 18.8064 5.17893 18.7918 5.08614 18.7586C4.99336 18.7254 4.90802 18.6742 4.835 18.608C4.68754 18.4743 4.59922 18.2876 4.58947 18.0888C4.57972 17.89 4.64933 17.6955 4.783 17.548C6.53502 15.6192 7.50393 13.1058 7.5 10.5C7.5 9.30654 7.97411 8.16195 8.81802 7.31804C9.66194 6.47413 10.8065 6.00002 12 6.00002C13.1935 6.00002 14.3381 6.47413 15.182 7.31804C16.0259 8.16195 16.5 9.30654 16.5 10.5C16.5 11.047 16.478 11.59 16.433 12.126C16.4167 12.3243 16.3223 12.5079 16.1706 12.6366C16.0189 12.7652 15.8223 12.8283 15.624 12.812C15.4258 12.7957 15.2421 12.7013 15.1135 12.5496C14.9848 12.3979 14.9217 12.2013 14.938 12.003C14.9794 11.5031 15.0001 11.0017 15 10.5C15 9.70437 14.6839 8.94131 14.1213 8.3787C13.5587 7.81609 12.7957 7.50002 12 7.50002ZM12 9.75002C12.1989 9.75002 12.3897 9.82904 12.5303 9.96969C12.671 10.1103 12.75 10.3011 12.75 10.5C12.7557 14.2551 11.4145 17.8876 8.97 20.738C8.84071 20.8892 8.65666 20.9828 8.45834 20.9983C8.26002 21.0138 8.06368 20.9498 7.9125 20.8205C7.76133 20.6912 7.66771 20.5072 7.65224 20.3089C7.63677 20.1105 7.70071 19.9142 7.83 19.763C10.0422 17.1843 11.2557 13.8975 11.25 10.5C11.25 10.3011 11.329 10.1103 11.4697 9.96969C11.6103 9.82904 11.8011 9.75002 12 9.75002ZM15.239 14.933C15.4302 14.9877 15.5919 15.1161 15.6884 15.2899C15.785 15.4637 15.8086 15.6688 15.754 15.86C15.1907 17.833 14.3182 19.7042 13.169 21.404C13.1138 21.4856 13.0432 21.5556 12.961 21.6099C12.8788 21.6642 12.7867 21.7018 12.69 21.7205C12.5933 21.7392 12.4938 21.7387 12.3973 21.7189C12.3008 21.6992 12.2091 21.6607 12.1275 21.6055C12.0459 21.5504 11.9759 21.4797 11.9216 21.3975C11.8673 21.3153 11.8298 21.2232 11.8111 21.1265C11.7923 21.0298 11.7929 20.9303 11.8126 20.8338C11.8323 20.7373 11.8708 20.6456 11.926 20.564C12.9867 18.9955 13.7921 17.2687 14.312 15.448C14.3667 15.2568 14.495 15.0952 14.6689 14.9986C14.8427 14.902 15.0478 14.8784 15.239 14.933Z" fill="currentColor"/>
</svg>
