<svg width="24" height="24" viewBox="0 0 24 24" fill="none" xmlns="http://www.w3.org/2000/svg">
<path d="M10.06 7.84154C10.06 7.3764 10.4375 7 10.9026 7H12.9277C15.7163 7 18 9.22596 18 12.0003C18 14.7734 15.7163 17 12.9277 17H10.902C10.4363 17 10.0594 16.623 10.0594 16.1585V7.84093L10.06 7.84154ZM11.7451 15.2404C11.7451 15.2826 11.7794 15.3169 11.8217 15.3169H12.9277C14.8113 15.3169 16.315 13.8193 16.315 11.9997C16.315 10.1801 14.8113 8.68248 12.9277 8.68248H11.8211C11.811 8.68248 11.801 8.68448 11.7916 8.68836C11.7823 8.69224 11.7738 8.69793 11.7667 8.7051C11.7596 8.71227 11.754 8.72078 11.7501 8.73013C11.7463 8.73948 11.7444 8.7495 11.7445 8.75959L11.7451 15.2404ZM7.8413 7.06243C7.95196 7.06219 8.06159 7.08374 8.16391 7.12585C8.26623 7.16797 8.35923 7.22982 8.43759 7.30786C8.51596 7.38591 8.57815 7.47862 8.62061 7.5807C8.66307 7.68278 8.68497 7.79221 8.68505 7.90275L8.69363 16.0948C8.69387 16.318 8.60534 16.5321 8.44751 16.6901C8.28968 16.8481 8.07547 16.937 7.85202 16.9373C7.62857 16.9375 7.41418 16.8491 7.256 16.6914C7.09782 16.5338 7.00882 16.3198 7.00858 16.0966L7 7.90458C6.99984 7.79407 7.02147 7.68461 7.06367 7.58245C7.10586 7.48028 7.16778 7.38742 7.2459 7.30916C7.32403 7.23091 7.41681 7.16878 7.51897 7.12634C7.62113 7.0839 7.73066 7.06259 7.8413 7.06243Z" fill="currentColor"/>
<path d="M4.5 0.75C4.00754 0.75 3.51991 0.846997 3.06494 1.03545C2.60997 1.22391 2.19657 1.50013 1.84835 1.84835C1.14509 2.55161 0.75 3.50544 0.75 4.5V19.5C0.75 20.4946 1.14509 21.4484 1.84835 22.1516C2.19657 22.4999 2.60997 22.7761 3.06494 22.9645C3.51991 23.153 4.00754 23.25 4.5 23.25H19.5C20.4946 23.25 21.4484 22.8549 22.1516 22.1516C22.8549 21.4484 23.25 20.4946 23.25 19.5V4.5C23.25 4.00754 23.153 3.51991 22.9645 3.06494C22.7761 2.60997 22.4999 2.19657 22.1516 1.84835C21.8034 1.50013 21.39 1.22391 20.9351 1.03545C20.4801 0.846997 19.9925 0.75 19.5 0.75H4.5ZM2.25 4.5C2.25 3.90326 2.48705 3.33097 2.90901 2.90901C3.33097 2.48705 3.90326 2.25 4.5 2.25H19.5C20.0967 2.25 20.669 2.48705 21.091 2.90901C21.5129 3.33097 21.75 3.90326 21.75 4.5V19.5C21.75 20.0967 21.5129 20.669 21.091 21.091C20.669 21.5129 20.0967 21.75 19.5 21.75H4.5C3.90326 21.75 3.33097 21.5129 2.90901 21.091C2.48705 20.669 2.25 20.0967 2.25 19.5V4.5Z" fill="currentColor"/>
</svg>
