<svg width="25" height="24" viewBox="0 0 25 24" fill="none" xmlns="http://www.w3.org/2000/svg">
<path d="M8.33333 8.66666C8.33333 8.44565 8.42113 8.23369 8.57741 8.07741C8.73369 7.92113 8.94565 7.83333 9.16666 7.83333H15.8333C16.0543 7.83333 16.2663 7.92113 16.4226 8.07741C16.5789 8.23369 16.6667 8.44565 16.6667 8.66666C16.6667 8.88768 16.5789 9.09964 16.4226 9.25592C16.2663 9.4122 16.0543 9.5 15.8333 9.5H9.16666C8.94565 9.5 8.73369 9.4122 8.57741 9.25592C8.42113 9.09964 8.33333 8.88768 8.33333 8.66666ZM9.16666 12.8333H15.8333C16.0543 12.8333 16.2663 12.7455 16.4226 12.5893C16.5789 12.433 16.6667 12.221 16.6667 12C16.6667 11.779 16.5789 11.567 16.4226 11.4107C16.2663 11.2545 16.0543 11.1667 15.8333 11.1667H9.16666C8.94565 11.1667 8.73369 11.2545 8.57741 11.4107C8.42113 11.567 8.33333 11.779 8.33333 12C8.33333 12.221 8.42113 12.433 8.57741 12.5893C8.73369 12.7455 8.94565 12.8333 9.16666 12.8333ZM12.5 14.5H9.16666C8.94565 14.5 8.73369 14.5878 8.57741 14.7441C8.42113 14.9004 8.33333 15.1123 8.33333 15.3333C8.33333 15.5543 8.42113 15.7663 8.57741 15.9226C8.73369 16.0789 8.94565 16.1667 9.16666 16.1667H12.5C12.721 16.1667 12.933 16.0789 13.0893 15.9226C13.2455 15.7663 13.3333 15.5543 13.3333 15.3333C13.3333 15.1123 13.2455 14.9004 13.0893 14.7441C12.933 14.5878 12.721 14.5 12.5 14.5ZM22.5 3.66667V14.9885C22.5007 15.2075 22.4579 15.4244 22.374 15.6266C22.2901 15.8289 22.1669 16.0125 22.0114 16.1667L16.6667 21.5114C16.5125 21.6669 16.3289 21.7901 16.1266 21.874C15.9244 21.9579 15.7075 22.0007 15.4885 22H4.16667C3.72464 22 3.30072 21.8244 2.98816 21.5118C2.67559 21.1993 2.5 20.7754 2.5 20.3333V3.66667C2.5 3.22464 2.67559 2.80072 2.98816 2.48816C3.30072 2.17559 3.72464 2 4.16667 2H20.8333C21.2754 2 21.6993 2.17559 22.0118 2.48816C22.3244 2.80072 22.5 3.22464 22.5 3.66667ZM4.16667 20.3333H15V15.3333C15 15.1123 15.0878 14.9004 15.2441 14.7441C15.4004 14.5878 15.6123 14.5 15.8333 14.5H20.8333V3.66667H4.16667V20.3333ZM16.6667 16.1667V19.1562L19.6552 16.1667H16.6667Z" fill="#2C842E"/>
</svg>
