<svg width="24" height="24" viewBox="0 0 24 24" fill="none" xmlns="http://www.w3.org/2000/svg">
    <path d="M21.25 12C21.25 17.1086 17.1086 21.25 12 21.25C6.89137 21.25 2.75 17.1086 2.75 12C2.75 6.89137 6.89137 2.75 12 2.75C17.1086 2.75 21.25 6.89137 21.25 12Z" stroke="currentColor" stroke-width="1.5" stroke-linecap="round"/>
    <path d="M8 9.69239C8 8.89578 8.55964 8.25 9.25 8.25C9.94036 8.25 10.5 8.89578 10.5 9.69239V14.308C10.5 15.1047 9.94036 15.7504 9.25 15.7504C8.55964 15.7504 8 15.1047 8 14.308V9.69239Z" fill="currentColor"/>
    <path d="M14.75 8.25C14.0596 8.25 13.5 8.89578 13.5 9.69239V14.308C13.5 15.1047 14.0596 15.7504 14.75 15.7504C15.4404 15.7504 16 15.1047 16 14.308V9.69239C16 8.89578 15.4404 8.25 14.75 8.25Z" fill="currentColor"/>
</svg>
