<svg width="24" height="24" viewBox="0 0 24 24" fill="none" xmlns="http://www.w3.org/2000/svg">
    <path fill-rule="evenodd" clip-rule="evenodd" d="M6.45504 5C5.90084 5 5.45157 5.48316 5.45157 6.07916V16.9832C5.45157 17.5792 5.90084 18.0623 6.45504 18.0623H7.44806C7.62805 18.0623 7.78809 18.0144 7.9256 17.9342C8.13177 18.7778 8.84576 19.4 9.69488 19.4C10.5344 19.4 11.2418 18.7919 11.4569 17.9629C11.5829 18.0259 11.7247 18.0623 11.8789 18.0623H15.6797C15.8289 18.0623 15.9704 18.0273 16.0977 17.9646C16.2249 18.0273 16.3664 18.0623 16.5156 18.0623H17.5086C17.6898 18.0623 17.8497 18.0139 17.9866 17.9339C18.1927 18.7776 18.9068 19.4 19.756 19.4C20.6052 19.4 21.3193 18.7777 21.5254 17.9339C21.6623 18.0139 21.8221 18.0623 22.0033 18.0623H22.9963C23.5506 18.0623 23.9998 17.5792 23.9998 16.9831V13.2314C23.9998 12.8917 23.8511 12.5719 23.5984 12.368L20.2187 9.64204C20.045 9.50194 19.8337 9.42621 19.6166 9.42621H16.6831V6.07916C16.6831 5.48316 16.2339 5 15.6797 5H6.45504ZM15.5121 10.5054L15.5124 10.4781V6.25902H6.62229V16.8033H7.34089C7.58728 15.5562 8.54638 14.8133 9.55195 14.7723C10.5832 14.7302 11.5939 15.4171 11.9881 16.8033H15.5121V10.5054ZM17.4093 16.8033H16.6831V10.6852H19.5608L22.8291 13.3213V16.8033H22.1026C21.8165 15.5317 20.7257 14.959 19.756 14.959C18.7863 14.959 17.6954 15.5317 17.4093 16.8033ZM10.3534 17.4328C10.3534 17.8239 10.0586 18.141 9.69488 18.141C9.33118 18.141 9.03635 17.8239 9.03635 17.4328C9.03635 17.0416 9.33118 16.7246 9.69488 16.7246C10.0586 16.7246 10.3534 17.0416 10.3534 17.4328ZM20.4145 17.4328C20.4145 17.8239 20.1197 18.141 19.756 18.141C19.3923 18.141 19.0975 17.8239 19.0975 17.4328C19.0975 17.0416 19.3923 16.7246 19.756 16.7246C20.1197 16.7246 20.4145 17.0416 20.4145 17.4328Z" fill="currentColor"/>
    <path d="M3.25606 8.26549C3.57935 8.26549 3.84142 7.98365 3.84142 7.63598C3.84142 7.28831 3.57935 7.00647 3.25606 7.00647L0.585359 7.00647C0.262074 7.00647 2.82616e-08 7.28831 0 7.63598C-2.82627e-08 7.98365 0.262074 8.26549 0.585359 8.26549L3.25606 8.26549Z" fill="currentColor"/>
    <path d="M3.25606 13.7738C3.57935 13.7738 3.84142 13.492 3.84142 13.1443C3.84142 12.7966 3.57935 12.5148 3.25606 12.5148H0.585359C0.262074 12.5148 2.82616e-08 12.7966 0 13.1443C-2.82627e-08 13.492 0.262074 13.7738 0.585359 13.7738H3.25606Z" fill="currentColor"/>
    <path d="M3.84142 10.3901C3.84142 10.7378 3.57935 11.0196 3.25606 11.0196H1.86583C1.54255 11.0196 1.28047 10.7378 1.28047 10.3901C1.28047 10.0425 1.54255 9.76062 1.86583 9.76062H3.25606C3.57935 9.76062 3.84142 10.0425 3.84142 10.3901Z" fill="currentColor"/>
</svg>
