<svg width="24" height="24" viewBox="0 0 24 24" fill="none" xmlns="http://www.w3.org/2000/svg">
    <path d="M21.25 12C21.25 17.1086 17.1086 21.25 12 21.25C6.89137 21.25 2.75 17.1086 2.75 12C2.75 6.89137 6.89137 2.75 12 2.75C17.1086 2.75 21.25 6.89137 21.25 12Z" stroke="currentColor" stroke-width="1.5" stroke-linecap="round"/>
    <path fill-rule="evenodd" clip-rule="evenodd" d="M15.9005 7.95178C16.1861 8.15581 16.2523 8.55277 16.0482 8.83841L11.0039 15.9005C10.8903 16.0595 10.7099 16.1574 10.5148 16.1661C10.3196 16.1747 10.1313 16.0931 10.0041 15.9447L7.98636 13.5907C7.75792 13.3242 7.78878 12.9229 8.0553 12.6945C8.32182 12.466 8.72307 12.4969 8.95151 12.7634L10.4411 14.5013L15.0138 8.09955C15.2179 7.81391 15.6148 7.74775 15.9005 7.95178Z" fill="currentColor"/>
</svg>
