<svg width="24" height="24" viewBox="0 0 24 24" fill="none" xmlns="http://www.w3.org/2000/svg">
    <path fill-rule="evenodd" clip-rule="evenodd" d="M17.6835 5.22199L19.8867 2.88672L19.101 2.47536C17.8122 1.80057 16.0611 1.75955 14.7683 2.56331C14.1095 2.97291 13.5706 3.6024 13.2842 4.46901C13.0251 5.25265 12.9828 6.19777 13.2049 7.30153L8.31417 12.4854L7.50796 13.3387C5.2004 12.9232 3.65714 13.7827 2.87443 15.1143C2.09577 16.439 2.09307 18.2213 2.83035 19.4011L3.27185 20.1076L5.43091 17.8192L6.21058 18.5989L4.00735 20.9341L4.79302 21.3455C6.08183 22.0203 7.83293 22.0613 9.12574 21.2575C9.78456 20.8479 10.3234 20.2184 10.6099 19.3518C10.8689 18.5682 10.9113 17.6231 10.6891 16.5193L11.1539 16.0267L16.3861 10.4821C18.6937 10.8977 20.2369 10.0381 21.0196 8.70653C21.7983 7.38184 21.801 5.59959 21.0637 4.41973L20.6222 3.71321L18.4632 6.00166L17.6835 5.22199ZM10.5774 14.7485L15.9058 9.10079L16.2331 9.1748C18.2716 9.63578 19.4055 8.91736 19.9487 7.99314C20.3368 7.33301 20.4387 6.5556 20.3372 5.90576L19.1857 7.12624C18.836 7.49689 18.2385 7.48329 17.8511 7.09586L16.6389 5.88375C16.2515 5.49633 16.2209 4.88179 16.5706 4.51114L17.7174 3.2956C16.9563 3.15236 16.1162 3.2572 15.4636 3.66294C15.0143 3.94231 14.6534 4.36363 14.458 4.95475C14.2614 5.54939 14.2198 6.35507 14.479 7.42068L14.5603 7.75533L8.89129 13.7641L7.98827 14.72L7.66099 14.646C5.62244 14.1851 4.48861 14.9035 3.94534 15.8277C3.55731 16.4878 3.45538 17.2652 3.55687 17.9151L4.70835 16.6946C5.05804 16.324 5.6556 16.3376 6.04303 16.725L7.25514 17.9371C7.64256 18.3245 7.67315 18.9391 7.32346 19.3097L6.17666 20.5252C6.93776 20.6685 7.77782 20.5636 8.43043 20.1579C8.87979 19.8785 9.24067 19.4572 9.43607 18.8661C9.63264 18.2714 9.67423 17.4658 9.4151 16.4002L9.33372 16.0655L10.5774 14.7485Z" fill="currentColor"/>
</svg>
