<svg width="25" height="24" viewBox="0 0 25 24" fill="none" xmlns="http://www.w3.org/2000/svg">
    <path fill-rule="evenodd" clip-rule="evenodd" d="M3.69107 18.482L3.73484 19H14.8209L14.8646 18.482C14.8805 18.2944 15.175 14.2858 12.2702 12.5818C13.265 11.7748 13.8539 10.5925 13.8539 9.31635C13.8539 6.93673 11.8007 5 9.27785 5C6.75504 5 4.70179 6.93673 4.70179 9.31635C4.70179 10.5925 5.2907 11.7748 6.2855 12.5818C3.3807 14.2858 3.67516 18.2944 3.69107 18.482ZM16.3262 15.707C16.6711 16.9724 16.6393 18.1195 16.6221 18.4394H21.1638C21.1638 18.4394 21.5498 13.8228 17.9685 12.6668C19.2657 12.0512 20.1571 10.7826 20.1571 9.31876C20.1571 7.24691 18.3744 5.56541 16.1779 5.56541C15.4809 5.56541 14.8258 5.73412 14.2561 6.0305C15.0967 6.8984 15.6099 8.05294 15.6099 9.31876C15.6099 10.5236 15.1484 11.6496 14.3406 12.5204C15.2836 13.271 15.9561 14.3483 16.3262 15.707Z" fill="#BABABA"/>
</svg>
