<svg width="24" height="24" viewBox="0 0 24 24" fill="none" xmlns="http://www.w3.org/2000/svg">
    <path fill-rule="evenodd" clip-rule="evenodd" d="M12 3.6092C7.36588 3.6092 3.60919 7.36588 3.60919 12C3.60919 16.6341 7.36588 20.3908 12 20.3908V22C6.47715 22 2 17.5228 2 12C2 6.47715 6.47715 2 12 2V3.6092ZM13.0969 3.68016C12.7383 3.63337 12.3722 3.6092 12 3.6092V2C12.4419 2 12.8776 2.02872 13.3051 2.08448L13.0969 3.68016ZM17.1078 5.34235C16.5301 4.89846 15.8934 4.52827 15.2117 4.24558L15.8281 2.75912C16.6415 3.09643 17.4004 3.5378 18.0883 4.06639L17.1078 5.34235ZM19.7544 8.78832C19.4717 8.1066 19.1015 7.46989 18.6576 6.89225L19.9336 5.91172C20.4622 6.59959 20.9036 7.35849 21.2409 8.17191L19.7544 8.78832ZM20.3908 12C20.3908 11.6278 20.3666 11.2617 20.3198 10.9031L21.9155 10.6949C21.9713 11.1224 22 11.5581 22 12C22 12.4419 21.9713 12.8776 21.9155 13.3051L20.3198 13.0969C20.3666 12.7383 20.3908 12.3722 20.3908 12ZM18.6576 17.1078C19.1015 16.5301 19.4717 15.8934 19.7544 15.2117L21.2409 15.8281C20.9036 16.6415 20.4622 17.4004 19.9336 18.0883L18.6576 17.1078ZM15.2117 19.7544C15.8934 19.4717 16.5301 19.1015 17.1078 18.6576L18.0883 19.9336C17.4004 20.4622 16.6415 20.9036 15.8281 21.2409L15.2117 19.7544ZM12 20.3908C12.3722 20.3908 12.7383 20.3666 13.0969 20.3198L13.3051 21.9155C12.8776 21.9713 12.4419 22 12 22V20.3908ZM14.3709 8.25C14.3709 7.91624 14.0981 7.64567 13.7616 7.64567C13.425 7.64567 13.1522 7.91624 13.1522 8.25V12.5159H9.50009C9.16354 12.5159 8.89072 12.7865 8.89072 13.1203C8.89072 13.454 9.16354 13.7246 9.50009 13.7246H13.7616H14.3709V13.1203V8.25Z" fill="currentColor"/>
</svg>
